<?xml version="1.0" encoding="UTF-8"?>
<svg version="1.1" xmlns="http://www.w3.org/2000/svg" width="117" height="180">
<path d="M0 0 C2.95851175 1.6767651 5.23415324 3.93324641 7.61257935 6.32531738 C8.1609697 6.86523819 8.70936005 7.405159 9.27436829 7.96144104 C11.08339261 9.74707922 12.88101307 11.54369384 14.67776489 13.3416748 C15.92968246 14.58649361 17.18189912 15.83101168 18.43440247 17.07524109 C21.05630726 19.68369863 23.67219511 22.29802214 26.28445435 24.9161377 C29.63826786 28.27585814 33.00999634 31.61694317 36.38688374 34.9534502 C38.97679846 37.51756521 41.55520653 40.09301138 44.13042259 42.67188072 C45.3692833 43.90904404 46.61214989 45.14220907 47.85900307 46.37131691 C49.59757822 48.08784797 51.31964761 49.81939959 53.0383606 51.55578613 C53.55931305 52.06347534 54.0802655 52.57116455 54.61700439 53.09423828 C57.96045951 56.51845441 57.96045951 56.51845441 58.1366272 59.13265991 C56.4598621 62.09117167 54.20338079 64.36681315 51.81130981 66.74523926 C51.27138901 67.29362961 50.7314682 67.84201996 50.17518616 68.4070282 C48.38954798 70.21605252 46.59293336 72.01367299 44.79495239 73.8104248 C43.55013359 75.06234238 42.30561551 76.31455903 41.06138611 77.56706238 C38.45292856 80.18896717 35.83860505 82.80485502 33.2204895 85.41711426 C29.86076906 88.77092777 26.51968403 92.14265625 23.18317699 95.51954365 C20.61906199 98.10945837 18.04361582 100.68786644 15.46474648 103.2630825 C14.22758316 104.50194322 12.99441813 105.7448098 11.76531029 106.99166298 C10.04877923 108.73023813 8.3172276 110.45230752 6.58084106 112.17102051 C6.07315186 112.69197296 5.56546265 113.21292542 5.04238892 113.74966431 C3.60224915 115.15583801 3.60224915 115.15583801 1.00198364 117.13464355 C-2.68278863 116.98437341 -4.37656688 115.10983778 -6.88864136 112.5369873 C-7.59762573 111.81833496 -8.30661011 111.09968262 -9.03707886 110.35925293 C-9.76668823 109.60450684 -10.49629761 108.84976074 -11.24801636 108.07214355 C-11.99309448 107.31353027 -12.73817261 106.55491699 -13.50582886 105.77331543 C-15.34348329 103.90032149 -17.1737736 102.02068745 -18.99801636 100.13464355 C-22.71661815 101.67337533 -23.35435177 102.60975744 -25.99801636 106.13464355 C-17.74801636 114.38464355 -9.49801636 122.63464355 -0.99801636 131.13464355 C3.12195944 127.60323572 6.93478015 124.32404503 10.68045044 120.49035645 C11.52790329 119.62668961 12.37535614 118.76302277 13.24848938 117.8731842 C14.14038467 116.96044235 15.03227997 116.0477005 15.95120239 115.1072998 C17.37860194 113.65783258 18.80781376 112.21016678 20.23701954 110.76248074 C23.73726489 107.21670236 27.23320949 103.66689991 30.71316528 100.10119629 C33.14842738 97.60668461 35.59560921 95.12443964 38.05121803 92.64996147 C39.43383646 91.24988501 40.80318276 89.83674214 42.1723175 88.42347717 C43.01031387 87.58187546 43.84831024 86.74027374 44.71170044 85.87316895 C45.44559494 85.12515518 46.17948944 84.37714142 46.93562317 83.60646057 C49.00198364 82.13464355 49.00198364 82.13464355 51.09434509 82.26036072 C54.1570204 83.66400422 55.92009568 85.51741297 58.00198364 88.13464355 C58.08145391 91.94259375 56.57500651 93.82921436 54.06057739 96.4666748 C52.86359922 97.63720042 51.65617401 98.79712116 50.43948364 99.94714355 C49.8239563 100.54462402 49.20842896 101.14210449 48.57424927 101.75769043 C47.05905115 103.22590566 45.53167927 104.68153909 44.00198364 106.13464355 C44.43132202 106.53779785 44.8606604 106.94095215 45.30300903 107.35632324 C47.23643503 109.18597111 49.15039421 111.03478531 51.06448364 112.88464355 C52.07865356 113.83597168 52.07865356 113.83597168 53.11331177 114.80651855 C53.74817505 115.42526855 54.38303833 116.04401855 55.03713989 116.68151855 C55.62890015 117.24709473 56.2206604 117.8126709 56.83035278 118.39538574 C58.00198364 120.13464355 58.00198364 120.13464355 57.89962769 121.89268494 C56.59159695 125.15962665 54.26492447 127.30562052 51.81130981 129.74523926 C51.27138901 130.29362961 50.7314682 130.84201996 50.17518616 131.4070282 C48.38954798 133.21605252 46.59293336 135.01367299 44.79495239 136.8104248 C43.55013359 138.06234238 42.30561551 139.31455903 41.06138611 140.56706238 C38.45292856 143.18896717 35.83860505 145.80485502 33.2204895 148.41711426 C29.86076906 151.77092777 26.51968403 155.14265625 23.18317699 158.51954365 C20.61906199 161.10945837 18.04361582 163.68786644 15.46474648 166.2630825 C14.22758316 167.50194322 12.99441813 168.7448098 11.76531029 169.99166298 C10.04877923 171.73023813 8.3172276 173.45230752 6.58084106 175.17102051 C6.07315186 175.69197296 5.56546265 176.21292542 5.04238892 176.74966431 C1.61817279 180.09311942 1.61817279 180.09311942 -0.99603271 180.26928711 C-3.95454447 178.59252201 -6.23018595 176.3360407 -8.60861206 173.94396973 C-9.15700241 173.40404892 -9.70539276 172.86412811 -10.270401 172.30784607 C-12.07942532 170.52220789 -13.87704579 168.72559327 -15.67379761 166.9276123 C-16.92571518 165.6827935 -18.17793183 164.43827543 -19.43043518 163.19404602 C-22.05233997 160.58558848 -24.66822782 157.97126497 -27.28048706 155.35314941 C-30.63430057 151.99342897 -34.00602906 148.65234394 -37.38291645 145.31583691 C-39.97283118 142.7517219 -42.55123924 140.17627573 -45.12645531 137.59740639 C-46.36531602 136.36024307 -47.6081826 135.12707804 -48.85503578 133.8979702 C-50.59361093 132.18143914 -52.31568033 130.44988751 -54.03439331 128.71350098 C-54.55534576 128.20581177 -55.07629822 127.69812256 -55.61303711 127.17504883 C-58.95314509 123.75426068 -58.95314509 123.75426068 -59.1423645 121.14137268 C-57.42918389 118.13713883 -55.10196596 115.84810327 -52.65206909 113.44812012 C-52.09596954 112.89158249 -51.53987 112.33504486 -50.96691895 111.76164246 C-49.12883808 109.92564998 -47.28036304 108.10050916 -45.43161011 106.27526855 C-44.1544325 105.0036867 -42.87791605 103.73144045 -41.60203552 102.45855713 C-38.24337754 99.11134943 -34.87580771 95.77324873 -31.50631714 92.43695068 C-28.06909704 89.03042729 -24.64036159 85.6153877 -21.21090698 82.2010498 C-14.48156427 75.50387452 -7.74277824 68.81628735 -0.99801636 62.13464355 C6.42796065 68.43057536 6.42796065 68.43057536 9.31057739 71.34558105 C9.82942505 71.86765137 10.34827271 72.38972168 10.88284302 72.9276123 C11.65338013 73.71071777 11.65338013 73.71071777 12.43948364 74.50964355 C12.98024536 75.05491699 13.52100708 75.60019043 14.07815552 76.1619873 C15.38845087 77.48387819 16.69556648 78.80891974 18.00198364 80.13464355 C21.72058543 78.59591178 22.35831906 77.65952967 25.00198364 74.13464355 C16.75198364 65.88464355 8.50198364 57.63464355 0.00198364 49.13464355 C-5.25614991 53.64161517 -10.12343671 58.19319905 -14.89840698 63.1619873 C-16.22938728 64.52193901 -17.6099869 65.83297101 -18.99801636 67.13464355 C-19.65801636 67.13464355 -20.31801636 67.13464355 -20.99801636 67.13464355 C-20.99801636 67.79464355 -20.99801636 68.45464355 -20.99801636 69.13464355 C-21.65801636 69.13464355 -22.31801636 69.13464355 -22.99801636 69.13464355 C-23.49301636 70.61964355 -23.49301636 70.61964355 -23.99801636 72.13464355 C-24.65801636 72.13464355 -25.31801636 72.13464355 -25.99801636 72.13464355 C-25.99801636 72.79464355 -25.99801636 73.45464355 -25.99801636 74.13464355 C-27.22067261 75.3338623 -27.22067261 75.3338623 -29.06051636 76.82214355 C-33.57240486 80.649919 -37.75303876 84.76764175 -41.93551636 88.94714355 C-42.61042114 89.61769775 -43.28532593 90.28825195 -43.98068237 90.97912598 C-44.93092285 91.93202515 -44.93092285 91.93202515 -45.90036011 92.9041748 C-46.75875488 93.76426147 -46.75875488 93.76426147 -47.63449097 94.64172363 C-49.09864212 96.10841733 -49.09864212 96.10841733 -49.99801636 98.13464355 C-53.08886373 97.79121607 -54.32246205 96.875087 -56.81051636 94.88464355 C-58.99801636 92.13464355 -58.99801636 92.13464355 -59.01364136 89.8572998 C-57.54802714 85.9283263 -54.95064856 83.65809076 -51.93551636 80.82214355 C-51.36768433 80.2723584 -50.79985229 79.72257324 -50.21481323 79.15612793 C-48.81810711 77.80636991 -47.40922799 76.46922831 -45.99801636 75.13464355 C-47.820572 70.45122784 -51.63497476 67.48593203 -55.27340698 64.2010498 C-56.75973511 62.79089355 -56.75973511 62.79089355 -58.99801636 60.13464355 C-58.91422421 55.87263589 -55.64167635 53.34221405 -52.80734253 50.52404785 C-52.26742172 49.9756575 -51.72750092 49.42726715 -51.17121887 48.86225891 C-49.38558069 47.05323459 -47.58896607 45.25561412 -45.79098511 43.4588623 C-44.54616631 42.20694473 -43.30164823 40.95472808 -42.05741882 39.70222473 C-39.44896128 37.08031994 -36.83463777 34.46443209 -34.21652222 31.85217285 C-30.85680177 28.49835934 -27.51571675 25.12663086 -24.17920971 21.74974346 C-21.6150947 19.15982874 -19.03964853 16.58142067 -16.46077919 14.00620461 C-15.22361587 12.76734389 -13.99045084 11.52447731 -12.761343 10.27762413 C-11.04481195 8.53904898 -9.31326032 6.81697959 -7.57687378 5.0982666 C-7.06918457 4.57731415 -6.56149536 4.05636169 -6.03842163 3.5196228 C-2.6142055 0.17616769 -2.6142055 0.17616769 0 0 Z M-2.7127533 17.72912598 C-3.45665817 18.47525146 -4.20056305 19.22137695 -4.9670105 19.9901123 C-5.80780655 20.83098389 -6.6486026 21.67185547 -7.51487732 22.53820801 C-8.42841476 23.45690674 -9.34195221 24.37560547 -10.28317261 25.32214355 C-11.21399155 26.25437744 -12.14481049 27.18661133 -13.10383606 28.14709473 C-15.58353034 30.63061487 -18.06020758 33.11712297 -20.5362854 35.60424805 C-23.06144034 38.13961564 -25.5894136 40.67216958 -28.11715698 43.20495605 C-33.08021818 48.17875578 -38.04010035 53.15571519 -42.99801636 58.13464355 C-41.01801636 60.44464355 -39.03801636 62.75464355 -36.99801636 65.13464355 C-33.66409565 63.4676832 -32.20631591 62.58073469 -29.76168823 60.04602051 C-29.15425781 59.42230057 -28.54682739 58.79858063 -27.92098999 58.15596008 C-26.95364929 57.14960762 -26.95364929 57.14960762 -25.96676636 56.1229248 C-24.58568466 54.71169783 -23.2041609 53.30090335 -21.82223511 51.89050293 C-19.65105283 49.66337759 -17.48399277 47.43260484 -15.32467651 45.19396973 C-13.23720861 43.0342342 -11.13459764 40.89023014 -9.02926636 38.7479248 C-8.38437256 38.07095047 -7.73947876 37.39397614 -7.07504272 36.69648743 C-6.4676123 36.08222397 -5.86018188 35.46796051 -5.23434448 34.83508301 C-4.70458008 34.28818314 -4.17481567 33.74128326 -3.6289978 33.17781067 C-1.99801636 32.13464355 -1.99801636 32.13464355 -0.00772095 32.275177 C2.31694418 33.26933899 3.61772393 34.38866646 5.39358521 36.18566895 C6.03394714 36.82625748 6.67430908 37.46684601 7.33407593 38.12684631 C8.01339172 38.82164597 8.69270752 39.51644562 9.39260864 40.2322998 C10.09722229 40.94115829 10.80183594 41.65001678 11.52780151 42.38035583 C13.77633149 44.64567636 16.01420603 46.92120564 18.25198364 49.19714355 C19.77473072 50.7349369 21.29816018 52.27205487 22.82229614 53.80847168 C26.55681174 57.57606157 30.28263214 61.3520862 34.00198364 65.13464355 C37.79719674 63.64366698 39.61241095 61.37763507 42.00198364 58.13464355 C36.54606322 52.65560016 31.0874785 47.17922356 25.62543583 41.70628357 C23.0895491 39.16516792 20.55460516 36.62312615 18.02175903 34.07897949 C15.11296426 31.15728757 12.20017548 28.23960728 9.28713989 25.32214355 C8.37360245 24.40344482 7.460065 23.48474609 6.5188446 22.53820801 C5.67804855 21.69733643 4.8372525 20.85646484 3.97097778 19.9901123 C3.22707291 19.24398682 2.48316803 18.49786133 1.71672058 17.72912598 C-0.49801636 15.59132534 -0.49801636 15.59132534 -2.7127533 17.72912598 Z M-3.28317261 81.32214355 C-4.19969604 82.25026855 -5.11621948 83.17839355 -6.06051636 84.13464355 C-7.4391687 85.52683105 -7.4391687 85.52683105 -8.84567261 86.94714355 C-9.55594604 87.66901855 -10.26621948 88.39089355 -10.99801636 89.13464355 C-9.52080214 92.58665994 -7.56007635 94.78426292 -4.87301636 97.38464355 C-3.78633667 98.44425293 -3.78633667 98.44425293 -2.67770386 99.52526855 C-2.12340698 100.0563623 -1.56911011 100.58745605 -0.99801636 101.13464355 C-0.00801636 100.47464355 0.98198364 99.81464355 2.00198364 99.13464355 C2.00198364 98.47464355 2.00198364 97.81464355 2.00198364 97.13464355 C2.66198364 97.13464355 3.32198364 97.13464355 4.00198364 97.13464355 C4.00198364 96.47464355 4.00198364 95.81464355 4.00198364 95.13464355 C4.62073364 94.88714355 5.23948364 94.63964355 5.87698364 94.38464355 C8.37678567 92.91417177 8.83514386 91.72061279 10.00198364 89.13464355 C8.35917202 87.46499835 6.71265603 85.79899716 5.06448364 84.13464355 C4.14796021 83.20651855 3.23143677 82.27839355 2.28713989 81.32214355 C-0.49801636 78.39667132 -0.49801636 78.39667132 -3.28317261 81.32214355 Z M34.00198364 114.13464355 C33.58948364 114.63093262 33.17698364 115.12722168 32.75198364 115.6385498 C29.05011968 119.99319782 25.20061808 123.79280519 20.84182739 127.4822998 C18.27038309 129.79168609 16.20647375 132.47795035 14.00198364 135.13464355 C12.1588974 136.75702409 10.28108489 138.31198755 8.35745239 139.83776855 C7.91014771 140.2657373 7.46284302 140.69370605 7.00198364 141.13464355 C7.00198364 141.79464355 7.00198364 142.45464355 7.00198364 143.13464355 C6.34198364 143.13464355 5.68198364 143.13464355 5.00198364 143.13464355 C3.61965921 144.76090759 2.28260849 146.42714376 1.00198364 148.13464355 C-2.37097193 147.55115505 -3.99807434 146.5036325 -6.38961792 144.08361816 C-7.02997986 143.44302963 -7.6703418 142.8024411 -8.33010864 142.1424408 C-9.00942444 141.44764114 -9.68874023 140.75284149 -10.38864136 140.0369873 C-11.093255 139.32812881 -11.79786865 138.61927032 -12.52383423 137.88893127 C-14.7723642 135.62361075 -17.01023874 133.34808147 -19.24801636 131.07214355 C-20.77076344 129.53435021 -22.2941929 127.99723224 -23.81832886 126.46081543 C-27.55284446 122.69322554 -31.27866486 118.91720091 -34.99801636 115.13464355 C-39.20291922 116.78656968 -39.80784571 118.14693025 -42.99801636 122.13464355 C-29.13801636 135.99464355 -15.27801636 149.85464355 -0.99801636 164.13464355 C4.70804637 159.26814576 4.70804637 159.26814576 10.10134888 154.14880371 C10.82156723 153.42850983 11.54178558 152.70821594 12.28382874 151.96609497 C13.03515579 151.20960663 13.78648285 150.45311829 14.56057739 149.67370605 C15.34973038 148.88313812 16.13888336 148.09257019 16.95195007 147.27804565 C19.45017026 144.7742673 21.94487409 142.26701881 24.43948364 139.75964355 C26.14172572 138.05238107 27.84419737 136.34534746 29.54690552 134.6385498 C33.70125728 130.47322457 37.85273446 126.30505136 42.00198364 122.13464355 C41.04776556 120.9853809 40.0884632 119.84033814 39.12698364 118.69714355 C38.59331177 118.05905762 38.05963989 117.42097168 37.50979614 116.7635498 C36.07970794 115.02659351 36.07970794 115.02659351 34.00198364 114.13464355 Z " fill="#2A2928" transform="translate(58.998016357421875,-0.1346435546875)"/>
</svg>
